<?xml version="1.0" encoding="utf-8"?>
<!-- Generator: Adobe Illustrator 20.1.0, SVG Export Plug-In . SVG Version: 6.00 Build 0)  -->
<svg version="1.1" id="Layer_1" xmlns="http://www.w3.org/2000/svg" xmlns:xlink="http://www.w3.org/1999/xlink" x="0px" y="0px"
	 viewBox="0 0 3134.7 739" style="enable-background:new 0 0 3134.7 739;" xml:space="preserve">
<style type="text/css">
	.st0{fill:#E33326;}
	.st1{fill:#F6A137;}
</style>
<path class="st0" d="M1548.9,508.5c0,3,0,4.8,0,6.5c0,72.7-0.1,145.3,0.1,218c0,4.8-1.2,6.1-6,6c-17.3-0.3-34.7-0.2-52,0
	c-3.7,0-5.1-0.6-5.1-4.8c0.1-118-0.1-236,0.2-354c0.2-86.3,57.6-159.3,141.3-180.5c101.7-25.7,206.1,40.2,226.7,143.1
	c20.5,102.3-46,201.2-147.7,220c-49.2,9.1-92.8-4.5-132.8-32.6C1565.1,524.1,1557.3,517,1548.9,508.5z M1794.5,380.7
	c0.5-39.2-13.5-71.9-42.9-97.8c-50.7-44.5-131.3-37.3-173.6,15.3c-27.2,33.8-33.1,72.4-24.7,113.5c16,77.8,105.6,119.5,175.3,81.7
	C1773,469.3,1794,430.9,1794.5,380.7z"/>
<path class="st0" d="M777.2,311.2c0-79.5,0-159-0.1-238.5c0-4.8,1.2-6,6-6c92.8,0.2,185.6,0.2,278.5,0c4.7,0,5.7,1.3,5.6,5.8
	c-0.3,17.7-0.3,35.3,0,53c0.1,4.4-1,5.5-5.4,5.5c-71.3-0.2-142.7-0.1-214-0.2c-5,0-6.3,1.1-6.3,6.2c0.2,45.7,0.2,91.3,0,137
	c0,4.2,1.1,5.2,5.2,5.2c63.3-0.1,126.7-0.1,190-0.2c4.3,0,5.6,0.8,5.5,5.4c-0.3,16.8-0.3,33.7,0,50.5c0.1,4.1-1,5.2-5.2,5.2
	c-63-0.1-126-0.1-189-0.1c-7.2,0-6.4-1-6.4,6.4c0,46.3,0.1,92.7-0.1,139c0,4.7,0.9,6.1,5.9,6.1c77.2-0.2,154.3-0.1,231.5-0.3
	c5.3,0,6.2,1.5,6.1,6.4c-0.3,17.5-0.3,35,0,52.5c0.1,4.6-1.4,5.4-5.6,5.4c-98.8-0.1-197.6-0.1-296.5,0c-5,0-5.9-1.5-5.8-6.1
	C777.3,469.9,777.2,390.5,777.2,311.2z"/>
<path class="st1" d="M439.1,555c-19.8,0-39.1-0.1-58.4,0.1c-3.4,0-3.6-2.4-4.4-4.4c-9.4-24.3-18.7-48.7-28.1-73.1
	c-4.6-12.1-9.4-24.2-13.9-36.3c-1-2.6-2.2-3.5-5-3.5c-73.1,0.1-146.3,0.1-219.4,0c-3.5,0-4.4,1.7-5.4,4.4c-13.8,36-27.7,72-41.3,108
	c-1.4,3.8-3.1,5-7.1,4.9C37.5,554.9,19,555,0,555c4.9-12.7,9.5-24.9,14.2-37.2c57-148.5,114-297,170.8-445.5
	c1.7-4.5,3.8-5.9,8.5-5.8c17.5,0.3,35,0.3,52.5,0c4.4-0.1,6.3,1.3,7.9,5.4c58.6,153,117.3,306,176,459
	C432.9,538.8,435.9,546.7,439.1,555z M219.7,142.4c-0.9,2.1-1.5,3.3-1.9,4.5c-28.5,74.2-56.9,148.3-85.5,222.5
	c-1.6,4.2-0.3,4.5,3.4,4.5c55.8-0.1,111.7-0.1,167.5,0c4.8,0,5-1.1,3.4-5.2c-25.8-66.8-51.4-133.7-77-200.6
	C226.3,159.8,223.2,151.5,219.7,142.4z"/>
<path class="st0" d="M2306.7,410.2c-45.5,0-91,0.1-136.5-0.1c-4.5,0-5.7,0.6-4.2,5.4c17,56,69.5,94,127.5,91.3
	c33.9-1.6,62.2-15.9,85.2-40.6c2.5-2.7,3.9-2.9,6.7-0.6c12.9,10.6,25.8,21,39,31.2c3.7,2.8,3.3,4.4,0.4,7.5
	c-34.3,37-76.3,58-126.7,60.8c-96.3,5.4-181.3-64.4-195-159.5c-14.3-99,50.2-189.3,148.7-208.2c88.6-17.1,173.1,37,193.8,124.2
	c3.8,15.8,4.8,31.9,4.3,48.1c-0.4,12-0.6,24-0.3,36c0.1,4.5-1.9,4.6-5.3,4.6C2398.3,410.2,2352.5,410.2,2306.7,410.2z M2275.5,351.2
	c27.5,0,55,0,82.4,0c8.5,0,17-0.1,25.5,0.1c3.3,0.1,4.1-1,3.4-4c-0.9-3.9-1.3-7.9-2.3-11.7c-13.6-53.5-62.7-86.3-117.8-78.7
	c-49,6.7-89.4,42.2-101.7,88.9c-1.2,4.4-0.8,5.6,4.1,5.5C2204.5,351.1,2240,351.2,2275.5,351.2z"/>
<path class="st0" d="M1458.3,204.2c-0.9,3.2-2.9,4.9-4.4,6.8c-42.4,55-84.7,110.1-127.2,165c-2.1,2.8-2.5,4.5-0.1,7.5
	c42.9,55.4,85.7,111,128.5,166.6c1.1,1.4,2.6,2.6,2.9,4.5c-1.2,1.1-2.6,0.6-3.8,0.6c-21.8,0-43.7,0-65.5,0.1c-3,0-4.8-0.9-6.6-3.3
	c-30.9-40.3-62-80.5-93-120.7c-1-1.3-2-2.6-3.4-4.2c-11.6,15-22.9,29.7-34.3,44.4c-20.6,26.8-41.3,53.6-61.9,80.3
	c-1.3,1.7-2.2,3.5-5,3.5c-23.6-0.1-47.3-0.1-71-0.1c-0.2-2,1.2-2.9,2-4c42.8-55.6,85.6-111.1,128.5-166.5c2.8-3.6,3.1-5.8,0.1-9.6
	c-42.5-54.7-84.7-109.7-127-164.5c-1.4-1.8-2.7-3.7-4.7-6.3c2.5,0,4.1,0,5.7,0c21.3,0,42.7,0.1,64-0.1c3.3,0,5.4,1,7.4,3.7
	c30.9,40.3,62,80.5,92.9,120.8c2.7,3.5,3.8,3.6,6.5,0.1c30.8-40.2,61.8-80.2,92.6-120.4c2.2-2.9,4.4-4.2,8.2-4.2
	C1412.4,204.3,1435.1,204.2,1458.3,204.2z"/>
<path class="st0" d="M2926.3,194.1c44.7,1.1,84.2,20.1,114.4,58.1c3.1,3.9,2.6,5.6-1.4,8.2c-13.2,8.5-26.1,17.3-39,26.1
	c-2.8,2-4,1.2-5.9-1.2c-29.3-37.7-78.1-45.3-116-28.1c-15.1,6.8-26.1,17.7-28.8,35.1c-1.7,11.3,2,20.6,10.6,28
	c9.3,8,20.3,12.6,31.6,16.7c18.9,6.8,38.6,9.7,58.1,14.1c17.9,4,35.5,8.8,51.9,17.2c30.4,15.5,48.6,39.5,51.4,74.2
	c2.8,34.7-5.6,65.1-32.3,88.8c-16.6,14.7-36.3,23.2-57.7,28.2c-45.3,10.5-89.2,7.5-131.2-13.7c-20.4-10.3-38.2-24.1-53.7-41
	c-2.2-2.4-2.2-3.6,0.5-5.6c13.8-10.5,27.5-21.1,41-31.9c2.8-2.2,3.9-2,6.1,0.8c32,40.5,85.6,52.8,130.4,34.7c9-3.7,17.1-9,23.3-16.7
	c17.4-21.1,13.5-49.7-9-65.5c-13-9.1-27.9-13.1-43-16.6c-22.5-5.2-45.2-9.8-67.1-17.2c-16.5-5.6-32.1-13-45-25
	c-20.9-19.3-27-44-24.9-71.3c3-39.1,25.7-64.1,59.5-80.5C2873.1,199,2897.4,194.4,2926.3,194.1z"/>
<path class="st0" d="M2621,194c46.6,1.2,86.3,20.3,116.4,59c2.3,3,2.6,4.4-0.9,6.7c-13,8.4-25.8,17.1-38.5,26
	c-3.3,2.3-4.9,2.6-7.8-1c-28.2-36-75.1-44.4-113.5-28.5c-10.4,4.3-19,11-25.1,20.6c-10.4,16.2-7.2,34.4,8.1,45.9
	c12.3,9.2,26.7,14,41.3,18.2c20.1,5.9,41.1,8.2,61.3,14c12.1,3.5,24.2,7.2,35.5,13c30.1,15.3,48.6,38.7,51.7,73
	c2.9,31.7-3.3,60.7-26.1,84.4c-16.4,17.1-36.9,27.1-59.5,32.9c-46.6,12-92,9.3-135.5-12.6c-20-10-37.5-23.5-52.7-39.9
	c-2.8-3-3.5-4.6,0.4-7.5c13.6-10.2,26.9-20.7,40.3-31.2c2.5-2,3.6-1.9,5.7,0.7c24.1,29.6,55.4,44.1,93.4,42.9
	c19.2-0.6,37.4-5.4,53.2-17.4c22.7-17.2,26.2-55.8-3.5-74c-14.2-8.7-29.9-12.7-45.8-16.3c-24.6-5.6-49.4-10.6-73-20.1
	c-12.6-5-24.4-11.5-34.4-20.9c-13.9-13-22.2-28.9-24.5-47.8c-4.1-33.6,4.4-62.8,30.4-85.6c18.4-16.2,40.4-25.3,64.2-30.6
	C2594.2,195.4,2606.5,194.4,2621,194z"/>
<path class="st0" d="M1965.9,239.3c15.4-13,31.3-23.2,48.8-30.8c22.3-9.6,45.5-14.7,69.7-15.4c3.1-0.1,4.3,0.5,4.3,3.9
	c-0.2,18.3-0.1,36.7,0,55c0,2.8-0.5,4-3.8,4.1c-31.6,1.2-59.1,12.6-81.7,34.7c-24.3,23.8-37.1,53-37.3,87.1
	c-0.2,57.2-0.1,114.3,0,171.5c0,4.4-0.9,5.9-5.6,5.8c-17.7-0.3-35.3-0.2-53,0c-3.5,0-4.4-0.9-4.4-4.4c0.1-114.3,0.1-228.7,0-343
	c0-3.4,0.8-4.5,4.4-4.5c18,0.2,36,0.2,54,0c3.9,0,4.7,1.3,4.6,4.9C1965.8,218.2,1965.9,228.2,1965.9,239.3z"/>
<path class="st1" d="M537.9,311c0,79.5,0,159,0.1,238.4c0,4.6-1.2,5.7-5.7,5.7c-17-0.3-34-0.3-51,0c-4.7,0.1-6.1-0.9-6.1-5.9
	c0.2-109.5,0.1-218.9,0.1-328.4c0-49.5,0.1-99-0.1-148.5c0-4.6,1.3-5.5,5.6-5.4c17.3,0.2,34.7,0.2,52,0c4.1-0.1,5.2,0.9,5.2,5.1
	C537.9,151.7,537.9,231.4,537.9,311z"/>
<path class="st1" d="M688.3,381.5c0,56-0.1,112,0.1,167.9c0,4.7-1.4,5.7-5.8,5.6c-17-0.2-34-0.2-51,0c-4.1,0.1-5.6-0.6-5.6-5.3
	c0.2-112.6,0.1-225.3,0-337.9c0-4.2,1.1-5.3,5.2-5.2c17.3,0.2,34.7,0.2,52,0c4.3-0.1,5.1,1.4,5.1,5.4
	C688.2,268.6,688.3,325,688.3,381.5z"/>
<path class="st1" d="M753.2,96.6c-0.1,2.6-2.1,2.6-3.9,2.7c-6.8,0.2-13.6,1-20.2,2.6c-39.3,9.8-67.9,45.4-69,85.9
	c-0.1,2.1,0.6,4.9-2.6,5c-3.5,0-2.9-3-3-5.2c-1.5-48.5-39.8-86.9-88.6-88.6c-2-0.1-4.4,0.3-4.5-2.6c-0.2-3,2.4-2.7,4.3-2.8
	c24.2-0.9,45.1-9.6,62.1-26.7c17-17.1,26-37.9,26.7-62.1c0-1.6-0.4-3.9,1.4-4.4c4.2-1.3,4.1,1.9,4.1,4.6
	c0.5,18.3,5.9,35.1,16.5,49.9c17.7,24.8,42,37.6,72.3,39.2C752.2,94.2,753.2,94.7,753.2,96.6z"/>
<path class="st0" d="M3126.5,171.4c-3.7,10.3-7.1,19.8-10.5,29.3c-0.9,2.4-1.5,4.3-5,4.3c-3.6,0-4-2.3-4.8-4.6
	c-3.4-9.9-6.8-19.7-11-29.5c0,3.8,0,7.6,0,11.3c0,6.3-0.1,12.7,0,19c0,2.3-0.2,3.7-3.1,3.7c-2.9,0-3.7-0.9-3.7-3.7
	c0.1-12.5,0.1-25,0-37.5c0-2.6,0.5-3.6,3.5-3.9c5.3-0.5,7.9,1.1,9.4,6.5c2.7,9.4,6.3,18.4,10,28.8c4.1-11.2,7.7-21.3,11.3-31.3
	c1.1-3.1,8.4-5.4,11.1-3.5c1.2,0.8,0.8,2.1,0.8,3.2c0,12.7-0.1,25.3,0.1,38c0,3.1-1.3,3.4-3.9,3.5c-3,0.1-3.7-1-3.6-3.8
	c0.2-8.3,0.2-16.6,0.3-25C3127.5,174.9,3127.8,173.6,3126.5,171.4z"/>
<path class="st0" d="M3061.2,185.5c0-5-0.2-10,0.1-15c0.1-3-0.7-4.3-3.9-4c-1.8,0.2-3.7,0-5.5,0.1c-2.4,0.1-4-0.1-4-3.3
	c0-3.3,1.5-3.3,3.9-3.3c8.8,0.1,17.6,0.1,26.4,0c2.3,0,3.7,0.1,3.7,3.1c0,3.1-1.3,3.5-3.9,3.5c-9.2,0.2-9.2,0.3-9.2,9.4
	c0,8.3-0.1,16.6,0.1,24.9c0.1,3.1-0.9,4-3.9,4c-3.1,0-4-1-3.9-4C3061.4,195.8,3061.2,190.6,3061.2,185.5z"/>
</svg>
