<?xml version="1.0" encoding="utf-8"?>
<!-- Generator: Adobe Illustrator 20.1.0, SVG Export Plug-In . SVG Version: 6.00 Build 0)  -->
<svg version="1.1" id="svg1936" xmlns:svg="http://www.w3.org/2000/svg"
	 xmlns="http://www.w3.org/2000/svg" xmlns:xlink="http://www.w3.org/1999/xlink" x="0px" y="0px" viewBox="0 0 650.2 195.7"
	 style="enable-background:new 0 0 650.2 195.7;" xml:space="preserve">
<style type="text/css">
	.st0{fill:#FF9900;}
	.st1{fill:#221F1F;}
</style>
<path id="path8" class="st0" d="M380.7,149c-35,25.8-85.7,39.6-129.4,39.6c-61.2,0-116.4-22.7-158.1-60.3c-3.3-3-0.3-7,3.6-4.7
	c45,26.2,100.7,41.9,158.2,41.9c38.8,0,81.4-8,120.6-24.7C381.6,138.3,386.5,144.7,380.7,149"/>
<path id="path10" class="st0" d="M395.3,132.4c-4.5-5.7-29.6-2.7-40.8-1.4c-3.4,0.4-4-2.6-0.9-4.7c20-14.1,52.8-10,56.7-5.3
	c3.8,4.7-1,37.6-19.8,53.4c-2.9,2.4-5.6,1.1-4.4-2.1C390.3,161.7,399.8,138.1,395.3,132.4"/>
<path id="path12" class="st1" d="M355.2,26.9V13.2c0-2.1,1.6-3.5,3.5-3.5h61.3c2,0,3.5,1.4,3.5,3.5v11.7c0,2-1.7,4.5-4.6,8.6
	l-31.7,45.3c11.8-0.3,24.3,1.5,34.9,7.5c2.4,1.4,3.1,3.4,3.3,5.3v14.6c0,2-2.2,4.3-4.5,3.1c-18.8-9.9-43.9-11-64.7,0.1
	c-2.1,1.2-4.4-1.2-4.4-3.1V92.5c0-2.2,0-6,2.3-9.4l36.8-52.7h-32C356.8,30.3,355.2,28.9,355.2,26.9"/>
<path id="path14" class="st1" d="M131.7,112.3h-18.6c-1.8-0.1-3.2-1.5-3.3-3.2V13.5c0-1.9,1.6-3.4,3.6-3.4h17.4
	c1.8,0.1,3.3,1.5,3.4,3.2v12.5h0.3C139,13.6,147.5,8,159,8c11.7,0,19,5.6,24.2,17.7C187.7,13.6,197.9,8,208.9,8
	c7.8,0,16.4,3.2,21.6,10.5c5.9,8,4.7,19.7,4.7,30l0,60.4c0,1.9-1.6,3.5-3.6,3.5H213c-1.9-0.1-3.4-1.6-3.4-3.5V58.1
	c0-4,0.4-14.1-0.5-17.9c-1.4-6.4-5.6-8.2-11-8.2c-4.5,0-9.2,3-11.1,7.8s-1.7,12.9-1.7,18.3v50.7c0,1.9-1.6,3.5-3.6,3.5H163
	c-1.9-0.1-3.4-1.6-3.4-3.5l0-50.7c0-10.7,1.8-26.4-11.5-26.4c-13.4,0-12.9,15.3-12.9,26.4v50.7C135.3,110.7,133.7,112.3,131.7,112.3
	"/>
<path id="path16" class="st1" d="M476.2,8c27.7,0,42.6,23.8,42.6,54c0,29.2-16.5,52.3-42.6,52.3c-27.2,0-41.9-23.8-41.9-53.4
	C434.3,31.1,449.3,8,476.2,8 M476.4,27.5c-13.7,0-14.6,18.7-14.6,30.4c0,11.7-0.2,36.7,14.4,36.7c14.4,0,15.1-20.1,15.1-32.4
	c0-8.1-0.3-17.7-2.8-25.4C486.5,30.1,482.3,27.5,476.4,27.5"/>
<path id="path18" class="st1" d="M554.7,112.3h-18.6c-1.9-0.1-3.4-1.6-3.4-3.5l0-95.7c0.2-1.8,1.7-3.1,3.6-3.1h17.3
	c1.6,0.1,3,1.2,3.3,2.7v14.6h0.3C562.5,14.2,569.9,8,582.7,8c8.4,0,16.5,3,21.8,11.3c4.9,7.7,4.9,20.5,4.9,29.8v60.2
	c-0.2,1.7-1.8,3-3.6,3h-18.7c-1.7-0.1-3.1-1.4-3.3-3v-52c0-10.5,1.2-25.8-11.7-25.8c-4.5,0-8.7,3-10.8,7.7c-2.6,5.8-3,11.7-3,18.1
	v51.5C558.3,110.7,556.7,112.3,554.7,112.3"/>
<path class="st1" d="M339.6,94.8c-3.4-4.7-7-8.5-7-17.3v-29c0-12.3,0.9-23.6-8.2-32.1c-7.2-6.9-19-9.3-28.1-9.3
	c-17.7,0-37.5,6.6-41.7,28.5c-0.4,2.3,1.3,3.6,2.8,3.9l18.1,1.9c1.7-0.1,2.9-1.7,3.3-3.4c1.5-7.6,7.9-11.2,15-11.2
	c3.9,0,8.2,1.4,10.5,4.9c2.6,3.8,2.3,9.1,2.3,13.5v2.4c-10.8,1.2-24.9,2-35.1,6.5c-11.7,5-19.9,15.3-19.9,30.5
	c0,19.4,12.2,29,27.9,29c13.2,0,20.5-3.1,30.7-13.6c3.4,4.9,4.5,7.3,10.7,12.4c1.4,0.7,3.2,0.7,4.4-0.4l0,0.1
	c3.7-3.3,10.5-9.2,14.3-12.4C341,98.4,340.7,96.4,339.6,94.8z M302.9,86.4c-3,5.2-7.7,8.5-12.9,8.5c-7.2,0-11.4-5.5-11.4-13.5
	c0-15.9,14.2-18.8,27.7-18.8v4C306.4,73.9,306.6,79.9,302.9,86.4z"/>
<path class="st1" d="M95.2,94.8c-3.4-4.7-7-8.5-7-17.3v-29c0-12.3,0.9-23.6-8.2-32.1c-7.2-6.9-19-9.3-28.1-9.3
	c-17.7,0-37.5,6.6-41.7,28.5c-0.4,2.3,1.3,3.6,2.8,3.9l18.1,1.9c1.7-0.1,2.9-1.7,3.2-3.4c1.5-7.6,7.9-11.2,15-11.2
	c3.8,0,8.2,1.4,10.5,4.9c2.6,3.8,2.3,9.1,2.3,13.5v2.4c-10.8,1.2-24.9,2-35.1,6.5c-11.7,5-19.9,15.3-19.9,30.5
	c0,19.4,12.2,29,27.9,29c13.3,0,20.5-3.1,30.7-13.6c3.4,4.9,4.5,7.3,10.7,12.4c1.4,0.7,3.2,0.7,4.4-0.4l0.1,0.1
	c3.7-3.3,10.5-9.2,14.3-12.4C96.7,98.4,96.4,96.4,95.2,94.8z M58.5,86.4c-3,5.2-7.7,8.5-12.9,8.5c-7.2,0-11.3-5.5-11.3-13.5
	c0-15.9,14.2-18.8,27.7-18.8v4l0,0C62,73.9,62.2,79.9,58.5,86.4z"/>
<path id="path32" class="st1" d="M633,11.1c4.5,0,8.2,3.6,8.2,8.2c0,4.5-3.7,8.2-8.2,8.2c-4.5,0-8.2-3.7-8.2-8.2
	C624.9,14.6,628.6,11.1,633,11.1 M633.1,9.5c-5.2,0-9.8,4.2-9.8,9.8c0,5.4,4.5,9.8,9.8,9.8c5.3,0,9.8-4.4,9.8-9.8
	C642.8,13.7,638.3,9.5,633.1,9.5 M629.4,24.8h2.1v-4.4h1.9c0.8,0,1,0.3,1.1,0.9c0,0.2,0.4,2.9,0.4,3.5h2.3c-0.3-0.5-0.4-2-0.6-2.9
	c-0.2-1.4-0.3-2.4-1.8-2.5c0.8-0.3,2.1-0.7,2.1-2.7c0-2.9-2.5-2.9-3.9-2.9h-3.7V24.8 M631.4,15.5h1.8c0.6,0,1.6,0,1.6,1.5
	c0,0.6-0.3,1.5-1.7,1.5h-1.7V15.5"/>
</svg>
