<?xml version="1.0" encoding="utf-8"?>
<!-- Generator: Adobe Illustrator 20.1.0, SVG Export Plug-In . SVG Version: 6.00 Build 0)  -->
<svg version="1.1" id="Layer_1" xmlns="http://www.w3.org/2000/svg" xmlns:xlink="http://www.w3.org/1999/xlink" x="0px" y="0px"
	 viewBox="0 0 88.9 88" style="enable-background:new 0 0 88.9 88;" xml:space="preserve">
<style type="text/css">
	.st0{fill:#FF5792;}
</style>
<g>
	<path class="st0" d="M-7.1-18.7c-0.4,0.3-0.9,0.7-1.4,1.1c-0.6,0.4-1.2,0.8-1.8,1.1c-0.7,0.3-1.3,0.6-2,0.8
		c-0.7,0.2-1.3,0.3-1.9,0.3c-0.6,0-1-0.1-1.4-0.2c-0.4-0.2-0.7-0.4-0.9-0.6c-0.2-0.3-0.4-0.6-0.5-1c-0.1-0.4-0.2-0.8-0.2-1.3
		c0-0.7,0.1-1.4,0.2-2.3s0.3-1.8,0.6-2.8c0.2-0.9,0.5-1.9,0.7-2.8c0.2-0.9,0.5-1.8,0.7-2.6c0.1-0.3,0.2-0.5,0.4-0.7
		c0.2-0.2,0.5-0.4,0.8-0.5s0.6-0.2,0.9-0.3c0.3-0.1,0.6-0.1,0.8-0.1c0.4,0,0.7,0.1,0.9,0.2s0.2,0.4,0.2,0.7c0,0.2-0.1,0.6-0.2,1
		s-0.2,0.9-0.4,1.5c-0.2,0.6-0.3,1.2-0.5,1.8c-0.2,0.6-0.4,1.3-0.5,1.9s-0.3,1.3-0.4,1.9s-0.2,1.2-0.2,1.6c0,0.5,0.1,0.9,0.2,1.1
		s0.3,0.4,0.7,0.4c0.4,0,0.8-0.1,1.3-0.4c0.5-0.3,0.9-0.6,1.4-1c0.5-0.4,0.9-0.8,1.4-1.2c0.5-0.4,0.9-0.7,1.2-1V-18.7z M-14.2-35
		c0-0.2,0.1-0.5,0.2-0.8s0.3-0.6,0.5-0.9s0.6-0.5,1-0.7s0.9-0.3,1.5-0.3c0.4,0,0.7,0,1.1,0.1c0.3,0.1,0.6,0.2,0.9,0.4
		c0.2,0.2,0.4,0.4,0.6,0.7c0.1,0.3,0.2,0.6,0.2,1c0,0.4-0.1,0.7-0.2,1c-0.1,0.3-0.3,0.6-0.6,0.9c-0.3,0.3-0.6,0.5-1,0.6
		c-0.4,0.2-0.9,0.2-1.4,0.2c-0.9,0-1.6-0.2-2.1-0.7S-14.2-34.3-14.2-35z"/>
	<path class="st0" d="M-8.2-18.6c0-0.7,0-1.5,0.1-2.4c0.1-0.9,0.2-1.9,0.3-2.8c0.1-0.9,0.3-1.9,0.4-2.7s0.3-1.6,0.5-2.3
		c0.1-0.5,0.3-0.9,0.7-1.2c0.3-0.3,0.8-0.5,1.4-0.5c0.6,0,1,0.2,1.2,0.5c0.2,0.4,0.3,0.8,0.3,1.4c0,0.2,0,0.4,0,0.6
		s-0.1,0.6-0.1,0.9c0,0.3-0.1,0.7-0.2,1c-0.1,0.3-0.1,0.7-0.2,1s-0.1,0.5-0.1,0.8c0,0.2,0,0.4,0,0.4h0.3c0.1-0.1,0.2-0.3,0.3-0.6
		c0.1-0.3,0.3-0.6,0.5-0.9c0.2-0.3,0.4-0.7,0.6-1.1c0.2-0.4,0.4-0.7,0.6-1.1c0.2-0.3,0.3-0.6,0.5-0.9c0.1-0.3,0.3-0.5,0.3-0.6
		c0.3-0.6,0.7-1,1.2-1.2c0.4-0.2,0.9-0.3,1.4-0.3c0.5,0,1,0.2,1.3,0.7c0.3,0.4,0.5,1.1,0.5,1.8c0,0.1,0,0.3-0.1,0.6
		c0,0.3-0.1,0.6-0.2,1S3.1-25.7,3-25.2c-0.1,0.5-0.2,0.9-0.2,1.4c-0.1,0.5-0.1,1-0.2,1.4s-0.1,0.9-0.1,1.3c0,0.7,0.1,1.2,0.2,1.6
		c0.2,0.4,0.4,0.6,0.8,0.6c0.2,0,0.3,0,0.5-0.1c0.2-0.1,0.4-0.2,0.7-0.4c0.2-0.2,0.5-0.3,0.7-0.5c0.2-0.2,0.5-0.4,0.7-0.6
		c0.6-0.5,1.2-1.1,1.8-1.7l0.3,3.6L7.4-18c-0.4,0.3-0.9,0.7-1.3,1c-0.5,0.3-0.9,0.6-1.4,0.9c-0.5,0.3-1,0.5-1.5,0.6
		c-0.5,0.2-1.1,0.2-1.7,0.2S0.4-15.7,0-16.5c-0.4-0.8-0.6-2.1-0.6-3.7c0-0.6,0-1.3,0.1-2.1c0.1-0.7,0.2-1.5,0.3-2.4h-0.3l-4.2,8.3
		C-4.8-16-5-15.7-5.3-15.5s-0.6,0.2-0.9,0.2c-0.4,0-0.8-0.1-1.1-0.3c-0.3-0.2-0.5-0.4-0.6-0.7C-8-16.6-8.1-17-8.1-17.4
		C-8.2-17.8-8.2-18.2-8.2-18.6z"/>
	<path class="st0" d="M5.6-14.7c0-0.1,0-0.4,0-1c0-0.6,0.1-1.4,0.2-2.4c0.1-1,0.2-2.1,0.3-3.4s0.3-2.7,0.5-4.1
		C6.8-27,7-28.4,7.3-29.9c0.3-1.5,0.6-3,1-4.4c0.4-1.4,0.8-2.8,1.3-4.1c0.5-1.3,1.1-2.4,1.7-3.3c0.6-0.9,1.3-1.7,2.1-2.3
		c0.8-0.6,1.6-0.8,2.5-0.8c0.4,0,0.7,0.1,1.1,0.2c0.4,0.1,0.8,0.3,1.1,0.6c0.3,0.3,0.6,0.7,0.8,1.1c0.2,0.5,0.3,1.1,0.3,1.7
		c0,0.6-0.1,1.3-0.3,2.2s-0.5,1.7-0.8,2.6c-0.4,0.9-0.8,1.9-1.3,2.9c-0.5,1-1,2-1.6,3c-0.6,1-1.2,2-1.8,2.9c-0.6,1-1.3,1.9-1.9,2.7
		l0,0.3c0.2-0.1,0.4-0.2,0.5-0.2c0.1,0,0.2,0,0.3,0c0.1,0,0.2,0,0.3,0c0.1,0,0.2,0.1,0.2,0.1s0.1,0.1,0.2,0.1s0.2,0,0.3,0
		c1.1,0,2-0.1,2.8-0.4c0.8-0.2,1.5-0.5,2-0.8c0.6-0.4,1.2-0.8,1.7-1.2l-0.4,3.9c-0.7,0.4-1.4,0.7-2.2,0.9c-0.8,0.2-1.5,0.4-2.1,0.5
		c-0.8,0.1-1.5,0.2-2.2,0.2c0.4,0.7,0.7,1.4,1,2.2c0.3,0.6,0.5,1.4,0.7,2.2c0.2,0.8,0.3,1.6,0.3,2.4c0,0.1,0,0.3,0,0.6
		c0,0.3-0.1,0.7-0.1,1.1s-0.2,0.9-0.3,1.5c-0.1,0.5-0.3,1.1-0.5,1.6c-0.2,0.6-0.4,1.1-0.7,1.6c-0.3,0.5-0.6,1-0.9,1.4
		c-0.4,0.4-0.8,0.7-1.2,1s-1,0.4-1.6,0.4S8.7-5.8,8.3-6.1C7.8-6.3,7.5-6.7,7.2-7.1s-0.6-1-0.8-1.6C6.2-9.3,6-9.9,5.9-10.6
		c-0.1-0.7-0.2-1.4-0.2-2C5.6-13.4,5.6-14,5.6-14.7z M9.8-22.3c0,0-0.1,0.1-0.1,0.4c-0.1,0.2-0.1,0.5-0.2,0.9c0,0.4-0.1,0.8-0.1,1.3
		s-0.1,0.9-0.1,1.4s-0.1,0.9-0.1,1.3c0,0.4,0,0.7,0,0.9c0,1.6,0,2.8,0.1,3.7s0.1,1.6,0.2,2.1c0.1,0.5,0.2,0.8,0.3,0.9
		c0.1,0.1,0.2,0.2,0.3,0.2c0.4,0,0.6-0.2,0.9-0.5c0.2-0.3,0.4-0.7,0.5-1.2c0.1-0.5,0.2-1.1,0.2-1.7s0.1-1.2,0.1-1.7
		c0-0.4,0-0.8-0.1-1.4c-0.1-0.5-0.1-1.1-0.2-1.7c-0.1-0.6-0.2-1.2-0.4-1.8c-0.1-0.6-0.3-1.1-0.4-1.6c-0.1-0.5-0.3-0.8-0.4-1.1
		C10.1-22.2,10-22.3,9.8-22.3z M13.7-39.7c-0.6,1.5-1.1,2.9-1.4,4s-0.6,2.2-0.8,3.1c-0.2,0.9-0.3,1.7-0.4,2.4
		c-0.1,0.7-0.1,1.3-0.2,1.9c0.6-1.2,1.3-2.4,2-3.6c0.7-1.2,1.3-2.3,1.8-3.3c0.5-1,1-1.9,1.3-2.7c0.3-0.8,0.5-1.4,0.5-1.8
		c0-0.6-0.1-1-0.2-1.2s-0.4-0.4-0.7-0.4c-0.5,0-0.9,0.1-1.1,0.4C14.1-40.6,13.9-40.2,13.7-39.7z"/>
	<path class="st0" d="M34.7-19.2c-0.2,0.3-0.6,0.7-1,1.2c-0.4,0.5-0.9,0.9-1.4,1.3s-1.1,0.8-1.6,1c-0.6,0.3-1.2,0.4-1.8,0.4
		c-0.7,0-1.3-0.2-1.8-0.7c-0.5-0.5-0.9-1.1-1.2-2c-0.3,0.3-0.6,0.6-0.9,0.9c-0.4,0.3-0.8,0.6-1.2,0.8c-0.4,0.2-0.9,0.5-1.4,0.6
		s-1,0.2-1.4,0.2c-0.5,0-1-0.1-1.5-0.3c-0.5-0.2-0.9-0.5-1.3-0.9c-0.4-0.4-0.7-0.9-0.9-1.4C17.1-18.4,17-19,17-19.7
		c0-0.8,0.1-1.6,0.3-2.5c0.2-0.8,0.5-1.7,0.9-2.5c0.4-0.8,0.9-1.6,1.4-2.3s1.1-1.3,1.8-1.9c0.6-0.5,1.3-1,2-1.3
		c0.7-0.3,1.4-0.5,2.2-0.5c0.2,0,0.4,0,0.6,0.1c0.1,0.1,0.3,0.2,0.3,0.3s0.2,0.2,0.3,0.4c0.1,0.1,0.2,0.2,0.3,0.3
		c0.1,0.1,0.3,0.1,0.4,0.1c0.1,0,0.3,0,0.4,0c0.1,0,0.2,0,0.4,0c0.1,0,0.2,0,0.4,0c0.2,0,0.3,0,0.4,0c0.1,0,0.3,0.1,0.4,0.2
		c0.1,0.1,0.2,0.3,0.2,0.4c0.1,0.2,0.1,0.5,0.1,0.8c0,0.5-0.1,1.1-0.2,1.7c-0.1,0.6-0.2,1.3-0.4,1.9c-0.1,0.7-0.2,1.3-0.4,2
		s-0.2,1.3-0.2,1.9c0,0.5,0,0.9,0.1,1.2c0.1,0.3,0.3,0.4,0.6,0.4c0.2,0,0.5-0.1,0.7-0.2s0.5-0.3,0.7-0.4c0.2-0.2,0.5-0.4,0.7-0.6
		c0.2-0.2,0.5-0.5,0.7-0.7c0.5-0.6,1-1.2,1.6-1.9L34.7-19.2z M21.1-20.4c0,0.3,0,0.5,0.1,0.8c0,0.2,0.1,0.5,0.2,0.7s0.2,0.4,0.4,0.5
		c0.2,0.1,0.4,0.2,0.6,0.2c0.4,0,0.7-0.2,1.1-0.5c0.3-0.3,0.6-0.7,0.8-1.2c0.2-0.5,0.4-1,0.6-1.5c0.1-0.5,0.2-0.9,0.3-1.3l1-4.7
		c-0.4,0-0.9,0.1-1.3,0.3c-0.4,0.2-0.8,0.5-1.2,0.9c-0.4,0.4-0.7,0.8-1,1.3s-0.6,1-0.8,1.5c-0.2,0.5-0.4,1.1-0.5,1.6
		C21.2-21.4,21.1-20.9,21.1-20.4z"/>
	<path class="st0" d="M32.3-21.4c0.6-0.5,1.1-0.9,1.4-1.3s0.7-0.7,1-0.9c0.3-0.3,0.5-0.6,0.7-0.9c0.2-0.3,0.5-0.6,0.8-1
		c0.3-0.4,0.7-0.9,1.1-1.4c0.4-0.6,1-1.3,1.7-2.1c0.1-0.2,0.3-0.4,0.5-0.6c0.2-0.2,0.4-0.3,0.6-0.5c0.2-0.1,0.4-0.3,0.7-0.3
		c0.2-0.1,0.5-0.1,0.8-0.1c0.5,0,0.9,0.1,1.2,0.2c0.3,0.1,0.5,0.2,0.6,0.4c0.1,0.2,0.2,0.3,0.2,0.5c0,0.2,0,0.3,0,0.5
		c0,0.3-0.1,0.5-0.3,0.8c-0.2,0.3-0.4,0.6-0.7,0.9c-0.2,0.3-0.5,0.5-0.7,0.8c-0.2,0.2-0.3,0.4-0.4,0.5c0,0.3,0,0.6,0.1,0.9
		c0,0.3,0.1,0.5,0.2,0.8s0.2,0.5,0.2,0.8c0.1,0.3,0.2,0.6,0.2,1s0.1,0.8,0.2,1.3s0.1,1.1,0.1,1.8c0.4-0.3,0.8-0.5,1.2-0.7
		c0.4-0.2,0.9-0.4,1.4-0.6s1-0.5,1.5-0.7s1-0.6,1.5-1l0,3.6c-0.7,0.5-1.4,1-2.3,1.4s-1.8,0.8-2.7,1.2c-0.9,0.3-1.9,0.6-2.9,0.8
		s-1.9,0.3-2.8,0.3c-0.6,0-1.2-0.1-1.8-0.2c-0.5-0.1-1-0.3-1.4-0.5c-0.4-0.2-0.7-0.6-1-1c-0.3-0.4-0.4-0.9-0.5-1.5
		c-0.1,0-0.3,0.1-0.4,0.1s-0.3,0-0.4,0c-0.2,0-0.3,0-0.5,0s-0.3-0.1-0.4-0.1c-0.1-0.1-0.2-0.2-0.3-0.3c-0.1-0.2-0.1-0.4-0.1-0.7
		c0-0.3,0.1-0.5,0.2-0.7c0.1-0.2,0.3-0.4,0.4-0.6c0.2-0.2,0.3-0.3,0.5-0.4C32.1-21.2,32.2-21.3,32.3-21.4z M34.3-19.4
		c0.1,0,0.3,0.1,0.4,0.2s0.3,0.3,0.5,0.5c0.2,0.2,0.4,0.4,0.7,0.5s0.6,0.2,0.9,0.2c0.4,0,0.8-0.1,1-0.2c0.3-0.1,0.5-0.3,0.6-0.5
		c0.2-0.2,0.3-0.5,0.3-0.8C39-19.7,39-20,39-20.3c0-0.3,0-0.6-0.1-0.9c0-0.3-0.1-0.6-0.1-0.9s-0.1-0.5-0.2-0.8
		c-0.1-0.2-0.1-0.4-0.2-0.6L34.3-19.4z"/>
	<path class="st0" d="M52.1-25.2c0.4-0.6,0.9-1.2,1.5-1.8c0.5-0.7,1.1-1.3,1.7-1.8c0.6-0.6,1.2-1,1.7-1.4c0.6-0.4,1.1-0.6,1.6-0.6
		c0.1,0,0.3,0,0.4,0.1s0.3,0.1,0.5,0.3c0.1,0.1,0.3,0.3,0.4,0.5c0.1,0.2,0.1,0.5,0.1,0.9c0,0.7-0.1,1.4-0.3,2.1
		c-0.2,0.7-0.4,1.4-0.7,2.1c-0.2,0.7-0.5,1.4-0.7,2.1s-0.3,1.5-0.3,2.2c0,0.4,0.1,0.8,0.2,1c0.1,0.3,0.3,0.4,0.5,0.4
		c0.3,0,0.5-0.1,0.8-0.2c0.3-0.1,0.6-0.2,0.9-0.4c0.3-0.2,0.6-0.4,0.8-0.6c0.3-0.2,0.5-0.4,0.8-0.7c0.6-0.5,1.2-1.2,1.7-1.8l0.3,4.2
		c-0.2,0.1-0.4,0.3-0.7,0.6c-0.3,0.2-0.6,0.5-1,0.7c-0.4,0.2-0.7,0.5-1.2,0.8c-0.4,0.3-0.8,0.5-1.2,0.7c-0.4,0.2-0.8,0.4-1.3,0.5
		c-0.4,0.1-0.8,0.2-1.2,0.2c-0.6,0-1.1-0.2-1.5-0.5c-0.4-0.3-0.8-0.7-1.1-1.2c-0.3-0.5-0.5-1-0.6-1.6c-0.1-0.6-0.2-1.1-0.2-1.6
		c0-0.3,0-0.7,0.1-1.1s0.2-0.8,0.3-1.3c0.1-0.4,0.3-0.8,0.4-1.2c0.2-0.4,0.3-0.8,0.5-1.1c0.1-0.3,0.3-0.6,0.4-0.8
		C55.9-25.9,56-26,56-26l-0.3,0c-0.2,0.1-0.5,0.4-0.9,0.9s-0.9,1.1-1.5,1.8c-0.5,0.7-1.1,1.5-1.7,2.5s-1.1,1.8-1.6,2.8
		c-0.2,0.5-0.4,0.9-0.6,1.2c-0.1,0.4-0.3,0.6-0.4,0.9c-0.1,0.2-0.3,0.4-0.5,0.5c-0.2,0.1-0.4,0.2-0.7,0.2c-0.4,0-0.6-0.1-0.8-0.3
		c-0.2-0.2-0.4-0.5-0.5-0.8c-0.1-0.3-0.2-0.7-0.2-1.1c0-0.4,0-0.9,0-1.3c0-0.7,0-1.6,0-2.8c0-1.2,0.1-2.4,0.2-3.8s0.2-2.9,0.4-4.4
		c0.2-1.5,0.4-3.1,0.7-4.6s0.7-3,1.1-4.3s1-2.6,1.6-3.6c0.6-1,1.4-1.9,2.2-2.5s1.8-0.9,2.9-0.9c0.6,0,1,0.1,1.4,0.3
		c0.4,0.2,0.7,0.4,0.9,0.7c0.2,0.3,0.4,0.7,0.5,1.1s0.1,0.9,0.1,1.4c0,0.8-0.1,1.7-0.3,2.6s-0.5,1.9-0.9,3c-0.4,1-0.8,2.1-1.2,3.1
		c-0.5,1.1-0.9,2.1-1.4,3.1s-1,1.9-1.4,2.8c-0.5,0.9-0.9,1.7-1.2,2.3L52.1-25.2z M53.5-35c0.6-1.6,1.1-3,1.4-4.1s0.4-1.9,0.4-2.5
		c0-0.8-0.1-1.2-0.3-1.2c-0.3,0-0.7,0.5-1.2,1.4c-0.5,0.9-1.2,2.2-1.9,3.9c-0.2,0.6-0.3,1.2-0.5,1.8c-0.2,0.6-0.3,1.2-0.4,1.9
		c-0.1,0.6-0.2,1.2-0.3,1.8c-0.1,0.6-0.2,1.2-0.3,1.7c-0.2,1.3-0.3,2.5-0.4,3.7c0.3-0.7,0.6-1.4,0.9-2.2c0.3-0.8,0.7-1.6,1-2.3
		c0.3-0.8,0.6-1.5,0.9-2.2C53.1-34,53.3-34.5,53.5-35z"/>
	<path class="st0" d="M72.6-18.7c-0.4,0.3-0.9,0.7-1.4,1.1c-0.6,0.4-1.2,0.8-1.8,1.1s-1.3,0.6-2,0.8c-0.7,0.2-1.3,0.3-1.9,0.3
		c-0.6,0-1-0.1-1.4-0.2c-0.4-0.2-0.7-0.4-0.9-0.6c-0.2-0.3-0.4-0.6-0.5-1c-0.1-0.4-0.2-0.8-0.2-1.3c0-0.7,0.1-1.4,0.2-2.3
		c0.2-0.9,0.3-1.8,0.6-2.8c0.2-0.9,0.5-1.9,0.7-2.8c0.2-0.9,0.5-1.8,0.7-2.6c0.1-0.3,0.2-0.5,0.4-0.7c0.2-0.2,0.5-0.4,0.8-0.5
		c0.3-0.1,0.6-0.2,0.9-0.3s0.6-0.1,0.8-0.1c0.4,0,0.7,0.1,0.9,0.2s0.2,0.4,0.2,0.7c0,0.2-0.1,0.6-0.2,1c-0.1,0.4-0.2,0.9-0.4,1.5
		c-0.2,0.6-0.3,1.2-0.5,1.8c-0.2,0.6-0.4,1.3-0.5,1.9s-0.3,1.3-0.4,1.9c-0.1,0.6-0.2,1.2-0.2,1.6c0,0.5,0.1,0.9,0.2,1.1
		c0.1,0.3,0.3,0.4,0.7,0.4c0.4,0,0.8-0.1,1.3-0.4c0.5-0.3,0.9-0.6,1.4-1c0.5-0.4,0.9-0.8,1.4-1.2s0.9-0.7,1.2-1V-18.7z M65.5-35
		c0-0.2,0.1-0.5,0.2-0.8c0.1-0.3,0.3-0.6,0.5-0.9c0.2-0.3,0.6-0.5,1-0.7c0.4-0.2,0.9-0.3,1.5-0.3c0.4,0,0.7,0,1.1,0.1
		s0.6,0.2,0.9,0.4c0.2,0.2,0.4,0.4,0.6,0.7c0.1,0.3,0.2,0.6,0.2,1c0,0.4-0.1,0.7-0.2,1c-0.1,0.3-0.3,0.6-0.6,0.9
		c-0.3,0.3-0.6,0.5-1,0.6c-0.4,0.2-0.9,0.2-1.4,0.2c-0.9,0-1.6-0.2-2.1-0.7C65.7-33.7,65.5-34.3,65.5-35z"/>
	<path class="st0" d="M81.2-27.2c0.3,0.6,0.5,1.3,0.7,2c0.2,0.7,0.2,1.3,0.2,2c0,0.6-0.1,1.3-0.2,1.9s-0.3,1.3-0.6,1.8
		c-0.3,0.6-0.6,1.2-1,1.7c-0.4,0.5-0.8,1-1.3,1.4s-1,0.7-1.6,0.9c-0.6,0.2-1.2,0.3-1.8,0.3c-0.9,0-1.7-0.2-2.4-0.6
		c-0.7-0.4-1.2-0.9-1.6-1.6c-0.4-0.7-0.7-1.4-0.9-2.2c-0.2-0.8-0.3-1.7-0.3-2.5c0-1.2,0.2-2.3,0.5-3.3c0.3-1,0.9-1.9,1.5-2.6
		s1.5-1.3,2.4-1.8s2-0.6,3.2-0.6c1,0,2,0.2,2.8,0.5c0.9,0.3,1.7,0.7,2.5,1.3c0.8,0.5,1.5,1.1,2.1,1.8c0.7,0.7,1.3,1.4,1.9,2.1
		L87-22.7c-0.3-0.4-0.7-0.8-1.2-1.2c-0.5-0.4-1-0.9-1.6-1.3c-0.5-0.4-1.1-0.8-1.6-1.2c-0.5-0.4-1-0.7-1.4-0.9L81.2-27.2z M76.3-18.3
		c0.4,0,0.7-0.2,1.1-0.5c0.3-0.4,0.6-0.8,0.9-1.4c0.3-0.6,0.5-1.2,0.6-1.8c0.2-0.7,0.2-1.3,0.2-1.9c0-0.5,0-0.9-0.1-1.4
		c-0.1-0.4-0.2-0.8-0.3-1.1c-0.1-0.3-0.3-0.6-0.6-0.7c-0.2-0.2-0.5-0.3-0.8-0.3c-0.4,0-0.8,0.2-1.2,0.6s-0.7,0.8-1,1.4
		c-0.3,0.6-0.5,1.2-0.7,1.9c-0.2,0.7-0.3,1.4-0.3,2c0,0.4,0,0.9,0.1,1.3s0.2,0.7,0.4,1c0.2,0.3,0.4,0.5,0.7,0.7S75.9-18.3,76.3-18.3
		z"/>
	<path class="st0" d="M85.3-18.6c0-0.7,0-1.5,0.1-2.4c0.1-0.9,0.2-1.9,0.3-2.8c0.1-0.9,0.3-1.9,0.4-2.7s0.3-1.6,0.5-2.3
		c0.1-0.5,0.3-0.9,0.7-1.2c0.3-0.3,0.8-0.5,1.4-0.5s1,0.2,1.2,0.5c0.2,0.4,0.3,0.8,0.3,1.4c0,0.2,0,0.4,0,0.6c0,0.3-0.1,0.6-0.1,0.9
		c0,0.3-0.1,0.7-0.2,1c-0.1,0.3-0.1,0.7-0.2,1s-0.1,0.5-0.1,0.8c0,0.2,0,0.4,0,0.4h0.3c0.1-0.1,0.2-0.3,0.3-0.6
		c0.1-0.3,0.3-0.6,0.5-0.9c0.2-0.3,0.4-0.7,0.6-1.1c0.2-0.4,0.4-0.7,0.6-1.1c0.2-0.3,0.3-0.6,0.5-0.9c0.1-0.3,0.3-0.5,0.3-0.6
		c0.3-0.6,0.7-1,1.2-1.2c0.4-0.2,0.9-0.3,1.4-0.3c0.5,0,1,0.2,1.3,0.7c0.3,0.4,0.5,1.1,0.5,1.8c0,0.1,0,0.3-0.1,0.6
		c0,0.3-0.1,0.6-0.2,1s-0.2,0.8-0.2,1.3c-0.1,0.5-0.2,0.9-0.2,1.4c-0.1,0.5-0.1,1-0.2,1.4c0,0.5-0.1,0.9-0.1,1.3
		c0,0.7,0.1,1.2,0.2,1.6c0.2,0.4,0.4,0.6,0.8,0.6c0.2,0,0.3,0,0.5-0.1c0.2-0.1,0.4-0.2,0.7-0.4c0.2-0.2,0.5-0.3,0.7-0.5
		c0.2-0.2,0.5-0.4,0.7-0.6c0.6-0.5,1.2-1.1,1.8-1.7l0.3,3.6L101-18c-0.4,0.3-0.9,0.7-1.3,1s-0.9,0.6-1.4,0.9c-0.5,0.3-1,0.5-1.5,0.6
		c-0.5,0.2-1.1,0.2-1.7,0.2c-0.6,0-1.1-0.4-1.5-1.3c-0.4-0.8-0.6-2.1-0.6-3.7c0-0.6,0-1.3,0.1-2.1s0.2-1.5,0.3-2.4h-0.3L89-16.4
		c-0.2,0.4-0.5,0.7-0.7,0.9s-0.6,0.2-0.9,0.2c-0.4,0-0.8-0.1-1.1-0.3c-0.3-0.2-0.5-0.4-0.6-0.7c-0.1-0.3-0.2-0.7-0.3-1.1
		C85.4-17.8,85.3-18.2,85.3-18.6z"/>
</g>
<text transform="matrix(1 0 0 1 184.9004 -15.6308)" class="st0" style="font-family:'LilyScriptOne-Regular'; font-size:31.9942px;">infashion</text>
<path class="st0" d="M44,0C19.7,0,0,19.7,0,44s19.7,44,44,44s44-19.7,44-44S68.3,0,44,0z M44,83.5C22.2,83.5,4.6,65.8,4.6,44
	S22.2,4.6,44,4.6S83.5,22.2,83.5,44S65.8,83.5,44,83.5z"/>
<path class="st0" d="M65.8,35.1c-0.7-1-1.3-1.9-2-2.9c-1-1.6-2.1-3.3-3.1-4.9c-1.1-1.8-2.7-3.1-4.7-3.8c-1.9-0.6-3.8-1-5.7-1.5h0
	c-0.4-0.1-0.9,0.1-1,0.5c-0.8,2.2-2.8,3.8-5.3,3.8c-2.7,0-4.9-1.9-5.5-4.4c-0.1,0-0.1,0-0.2,0c-1.8,0.5-3.6,0.9-5.3,1.3
	c-1.9,0.5-3.6,1.3-4.8,2.9c-0.6,0.7-1.1,1.6-1.6,2.4c-1.5,2.2-2.9,4.4-4.4,6.6c-0.2,0.3-0.1,0.6,0.2,0.8c1.8,1.1,3.6,2.2,5.4,3.3
	c0.3,0.2,0.6,0.2,0.8-0.2c0.8-1.2,1.6-2.4,2.4-3.6c0.3-0.4,0.6-0.8,0.9-1.2c0.1,0,0.1,0,0.2,0.1c0,0.6,0,1.2,0,1.8
	c0,9.7,0,19.4,0,29.2c0,0.8,0,0.8,0.8,0.8c7.4,0,14.8,0,22.1,0c0.9,0,0.9,0,0.9-0.9c0-9.7,0-19.4,0-29.1c0-0.6,0-1.2,0-1.8
	c0.1,0,0.1,0,0.2-0.1c0.1,0.2,0.3,0.3,0.4,0.5c1,1.4,1.9,2.8,2.8,4.3c0.3,0.4,0.6,0.4,1.1,0c1.4-1.2,3-2.2,4.7-2.9
	C66,35.8,66.1,35.6,65.8,35.1z"/>
</svg>
