<?xml version="1.0" encoding="utf-8"?>
<!-- Generator: Adobe Illustrator 20.1.0, SVG Export Plug-In . SVG Version: 6.00 Build 0)  -->
<svg version="1.1" id="Layer_1" xmlns="http://www.w3.org/2000/svg" xmlns:xlink="http://www.w3.org/1999/xlink" x="0px" y="0px"
	 viewBox="0 0 83.3 125.4" style="enable-background:new 0 0 83.3 125.4;" xml:space="preserve">
<style type="text/css">
	.st0{fill:#FF5792;}
</style>
<g>
	<path class="st0" d="M7,25.5c-0.8,0-1.5-0.2-2.2-0.5c-0.6-0.3-1.1-0.7-1.6-1.2c-0.4-0.5-0.7-1.1-1-1.8C2.1,21.4,2,20.7,2,20
		C2,19.5,2,19,2.1,18.4c0.1-0.6,0.3-1.1,0.5-1.7s0.5-1.1,0.8-1.5c0.3-0.5,0.7-0.9,1.1-1.3s0.9-0.7,1.4-0.9s1-0.3,1.6-0.3
		c0.5,0,1,0.1,1.4,0.2c0.4,0.2,0.8,0.4,1.1,0.6c0.3,0.3,0.5,0.6,0.7,1c0.2,0.4,0.3,0.8,0.3,1.2c0,0.3,0,0.6-0.1,0.9
		c-0.1,0.3-0.2,0.6-0.4,0.8c-0.2,0.2-0.3,0.4-0.6,0.6c-0.2,0.1-0.5,0.2-0.8,0.2c-0.4,0-0.7-0.1-0.8-0.3c-0.1-0.2-0.2-0.5-0.2-0.9
		c0-0.2,0-0.3,0-0.5c0-0.2,0-0.3,0-0.5c0-0.2,0-0.4-0.1-0.5c0-0.1-0.1-0.2-0.3-0.2c-0.4,0-0.7,0.1-0.9,0.3c-0.3,0.2-0.5,0.4-0.7,0.7
		c-0.2,0.3-0.3,0.6-0.4,1c-0.1,0.4-0.2,0.7-0.3,1.1s-0.1,0.7-0.1,1s0,0.6,0,0.8c0,0.3,0,0.7,0.1,1c0.1,0.3,0.2,0.7,0.3,1
		c0.2,0.3,0.4,0.5,0.7,0.7C6.8,22.9,7.1,23,7.5,23C8,23,8.4,22.8,9,22.6c0.5-0.3,1-0.6,1.6-1s1-0.8,1.5-1.3c0.5-0.5,0.9-0.9,1.2-1.4
		l0.9,1.6c-0.7,1-1.4,1.8-2.2,2.6c-0.3,0.3-0.7,0.6-1.1,0.9c-0.4,0.3-0.8,0.6-1.2,0.8c-0.4,0.2-0.9,0.4-1.3,0.6
		C7.9,25.5,7.4,25.5,7,25.5z"/>
	<path class="st0" d="M15.7,25.5c-0.5,0-0.9-0.2-1.3-0.6c-0.4-0.4-0.8-1-1.1-1.7c-0.3-0.7-0.5-1.5-0.7-2.5s-0.3-1.9-0.3-3
		c0-0.8,0.1-1.7,0.2-2.6c0.1-0.9,0.3-1.9,0.5-2.9c0.2-1,0.5-2,0.8-3s0.7-2,1-2.9c0.4-0.9,0.8-1.8,1.3-2.6C16.5,3,17,2.3,17.5,1.7
		s1-1.1,1.6-1.4c0.5-0.3,1.1-0.5,1.7-0.5c0.4,0,0.7,0.1,1,0.3c0.2,0.2,0.4,0.4,0.6,0.7c0.1,0.3,0.2,0.6,0.3,1
		c0.1,0.4,0.1,0.7,0.1,1.1c0,0.8-0.1,1.7-0.3,2.6c-0.2,0.9-0.5,1.7-0.8,2.6c-0.3,0.9-0.7,1.8-1.1,2.6s-0.9,1.8-1.3,2.6
		c-0.5,0.9-0.9,1.7-1.4,2.6s-0.9,1.7-1.3,2.5c0,0.1-0.1,0.2-0.1,0.3c0,0.1-0.1,0.3-0.1,0.5c0,0.2-0.1,0.3-0.1,0.5
		c0,0.2-0.1,0.4-0.1,0.5v0.2c0,0.2,0,0.5,0.1,0.7s0.1,0.4,0.2,0.6c0.1,0.2,0.1,0.3,0.2,0.4c0.1,0.1,0.2,0.2,0.2,0.2
		c0.2,0,0.4,0,0.6-0.1c0.2-0.1,0.5-0.2,0.7-0.3c0.2-0.1,0.5-0.3,0.8-0.4s0.5-0.3,0.8-0.5c0.6-0.4,1.2-0.8,1.8-1.3l1.1,2.8
		c-0.8,0.6-1.6,1.1-2.4,1.5c-0.3,0.2-0.7,0.4-1.1,0.6c-0.4,0.2-0.7,0.3-1.1,0.5c-0.4,0.1-0.7,0.3-1.1,0.3
		C16.3,25.5,16,25.5,15.7,25.5z M15.7,14.8c0.4-0.7,0.8-1.5,1.3-2.4c0.5-0.9,0.9-1.8,1.3-2.8c0.4-0.9,0.8-1.9,1-2.8
		c0.3-0.9,0.5-1.8,0.6-2.6c0-0.3,0-0.5,0-0.7c0-0.2-0.1-0.3-0.1-0.3c-0.3,0-0.5,0.2-0.8,0.5c-0.3,0.3-0.6,0.8-0.9,1.4
		c-0.3,0.6-0.6,1.2-0.9,2c-0.3,0.8-0.5,1.6-0.7,2.4c-0.2,0.9-0.4,1.7-0.5,2.6C15.8,13.1,15.7,14,15.7,14.8z"/>
	<path class="st0" d="M28.5,22.7c-0.3,0.3-0.7,0.6-1.2,0.9c-0.5,0.3-1,0.6-1.5,0.9s-1.1,0.5-1.7,0.7c-0.6,0.2-1.1,0.3-1.6,0.3
		c-0.5,0-0.9-0.1-1.2-0.2c-0.3-0.1-0.6-0.3-0.8-0.5c-0.2-0.2-0.3-0.5-0.4-0.9C20,23.6,20,23.2,20,22.8c0-0.6,0.1-1.2,0.2-2
		c0.1-0.7,0.3-1.5,0.5-2.3c0.2-0.8,0.4-1.6,0.6-2.4c0.2-0.8,0.4-1.5,0.6-2.2c0.1-0.2,0.2-0.4,0.4-0.6s0.4-0.3,0.6-0.4
		s0.5-0.2,0.7-0.2c0.3,0,0.5-0.1,0.7-0.1c0.4,0,0.6,0.1,0.8,0.2c0.1,0.1,0.2,0.3,0.2,0.6c0,0.2,0,0.5-0.1,0.9
		c-0.1,0.4-0.2,0.8-0.3,1.3s-0.3,1-0.4,1.5c-0.2,0.5-0.3,1.1-0.4,1.6c-0.1,0.5-0.2,1.1-0.3,1.6c-0.1,0.5-0.1,1-0.1,1.4
		c0,0.4,0,0.7,0.1,1c0.1,0.2,0.3,0.4,0.5,0.4c0.3,0,0.7-0.1,1.1-0.3s0.8-0.5,1.2-0.8c0.4-0.3,0.8-0.6,1.2-1s0.7-0.6,1-0.9V22.7z
		 M22.5,8.9c0-0.2,0-0.4,0.1-0.7c0.1-0.3,0.2-0.5,0.4-0.7c0.2-0.2,0.5-0.4,0.8-0.6s0.8-0.2,1.3-0.2c0.3,0,0.6,0,0.9,0.1
		c0.3,0.1,0.5,0.2,0.7,0.3s0.4,0.3,0.5,0.6c0.1,0.2,0.2,0.5,0.2,0.9c0,0.3,0,0.6-0.1,0.9c-0.1,0.3-0.3,0.5-0.5,0.8
		c-0.2,0.2-0.5,0.4-0.8,0.5c-0.3,0.1-0.7,0.2-1.2,0.2c-0.8,0-1.4-0.2-1.7-0.6C22.7,10,22.5,9.5,22.5,8.9z"/>
	<path class="st0" d="M31.7,25.5c-0.8,0-1.5-0.2-2.2-0.5c-0.6-0.3-1.1-0.7-1.6-1.2c-0.4-0.5-0.7-1.1-1-1.8c-0.2-0.7-0.3-1.4-0.3-2.1
		c0-0.5,0.1-1.1,0.2-1.6c0.1-0.6,0.3-1.1,0.5-1.7s0.5-1.1,0.8-1.5c0.3-0.5,0.7-0.9,1.1-1.3s0.9-0.7,1.4-0.9s1-0.3,1.6-0.3
		c0.5,0,1,0.1,1.4,0.2c0.4,0.2,0.8,0.4,1.1,0.6c0.3,0.3,0.5,0.6,0.7,1c0.2,0.4,0.3,0.8,0.3,1.2c0,0.3,0,0.6-0.1,0.9
		c-0.1,0.3-0.2,0.6-0.4,0.8c-0.2,0.2-0.3,0.4-0.6,0.6c-0.2,0.1-0.5,0.2-0.8,0.2c-0.4,0-0.7-0.1-0.8-0.3c-0.1-0.2-0.2-0.5-0.2-0.9
		c0-0.2,0-0.3,0-0.5c0-0.2,0-0.3,0-0.5c0-0.2,0-0.4-0.1-0.5c0-0.1-0.1-0.2-0.3-0.2c-0.4,0-0.7,0.1-0.9,0.3c-0.3,0.2-0.5,0.4-0.7,0.7
		c-0.2,0.3-0.3,0.6-0.4,1c-0.1,0.4-0.2,0.7-0.3,1.1s-0.1,0.7-0.1,1s0,0.6,0,0.8c0,0.3,0,0.7,0.1,1c0.1,0.3,0.2,0.7,0.3,1
		c0.2,0.3,0.4,0.5,0.7,0.7c0.3,0.2,0.6,0.3,1.1,0.3c0.4,0,0.9-0.1,1.4-0.4c0.5-0.3,1-0.6,1.6-1s1-0.8,1.5-1.3
		c0.5-0.5,0.9-0.9,1.2-1.4l0.9,1.6c-0.7,1-1.4,1.8-2.2,2.6c-0.3,0.3-0.7,0.6-1.1,0.9c-0.4,0.3-0.8,0.6-1.2,0.8
		c-0.4,0.2-0.9,0.4-1.3,0.6C32.7,25.5,32.2,25.5,31.7,25.5z"/>
	<path class="st0" d="M41.7,18.1c0.3-0.4,0.7-0.9,1.1-1.4c0.4-0.5,0.8-1,1.1-1.4c0.4-0.4,0.7-0.8,1-1.2c0.3-0.3,0.6-0.6,0.7-0.7
		c0.3-0.2,0.6-0.4,1-0.5c0.4-0.1,0.8-0.2,1.3-0.2c0.2,0,0.5,0.1,0.7,0.2c0.2,0.1,0.4,0.3,0.6,0.5c0.2,0.2,0.3,0.5,0.4,0.8
		c0.1,0.3,0.1,0.6,0.1,1c0,0.4-0.1,0.7-0.3,1.1c-0.2,0.4-0.4,0.7-0.7,1.1c-0.3,0.4-0.6,0.8-0.9,1.1s-0.6,0.8-0.9,1.1
		c-0.3,0.4-0.5,0.8-0.7,1.1s-0.3,0.8-0.3,1.1c0,0.3,0.1,0.6,0.2,0.7c0.2,0.1,0.4,0.2,0.7,0.2c0.2,0,0.4-0.1,0.6-0.2
		c0.2-0.1,0.4-0.3,0.6-0.5c0.2-0.2,0.4-0.4,0.7-0.7c0.2-0.2,0.4-0.5,0.7-0.7c0.2-0.2,0.4-0.5,0.6-0.7c0.2-0.2,0.4-0.4,0.5-0.6
		l0.8,3.3c-0.3,0.4-0.6,0.8-1.1,1.1s-0.9,0.6-1.4,0.9c-0.5,0.3-1,0.5-1.5,0.6c-0.5,0.1-1,0.2-1.5,0.2c-0.6,0-1.2-0.1-1.6-0.2
		s-0.7-0.4-1-0.6c-0.2-0.3-0.4-0.6-0.5-0.9c-0.1-0.3-0.1-0.7-0.1-1c0-0.2,0-0.5,0.1-0.8c0-0.3,0.1-0.6,0.3-1
		c0.1-0.4,0.3-0.8,0.6-1.2c0.2-0.5,0.6-0.9,1-1.5c0.2-0.2,0.3-0.3,0.4-0.4s0.2-0.2,0.3-0.3c0.1-0.1,0.2-0.2,0.2-0.3
		c0.1-0.1,0.1-0.2,0.1-0.3c0-0.2,0-0.3-0.1-0.5s-0.2-0.2-0.3-0.2c-0.2,0-0.3,0.1-0.6,0.3s-0.5,0.5-0.8,1l-3.9,6.9
		c-0.2,0.4-0.4,0.6-0.6,0.7c-0.2,0.1-0.5,0.2-0.8,0.2c-0.4,0-0.7-0.1-0.9-0.2c-0.2-0.2-0.4-0.4-0.5-0.7c-0.1-0.3-0.2-0.6-0.2-1
		s0-0.8,0-1.2c0-0.5,0-1.2,0.1-2s0.1-1.8,0.2-2.8c0.1-1,0.2-2.1,0.3-3.2c0.1-1.1,0.3-2.2,0.4-3.2c0.1-0.4,0.1-0.8,0.2-1.3
		s0.2-1.1,0.4-1.7s0.3-1.2,0.5-1.9c0.2-0.6,0.4-1.3,0.7-1.9c0.3-0.6,0.6-1.2,0.9-1.7c0.3-0.6,0.7-1,1.1-1.5c0.4-0.4,0.9-0.7,1.4-1
		C43.9,0.1,44.5,0,45,0c0.5,0,0.8,0.1,1.1,0.2c0.3,0.1,0.5,0.4,0.7,0.6c0.2,0.3,0.3,0.6,0.4,0.9c0.1,0.4,0.1,0.8,0.1,1.2
		c0,0.8-0.1,1.6-0.3,2.5c-0.2,0.9-0.4,1.8-0.7,2.6s-0.6,1.7-1,2.6c-0.3,0.8-0.7,1.6-1,2.2c-0.3,0.7-0.6,1.2-0.9,1.7
		c-0.2,0.5-0.4,0.8-0.5,0.9l-1.6,2.4L41.7,18.1z M44.4,3c-0.3,0-0.5,0.1-0.7,0.3C43.4,3.5,43.2,3.7,43,4c-0.2,0.3-0.4,0.7-0.5,1.2
		c-0.2,0.5-0.4,1-0.6,1.6c-0.1,0.5-0.3,1-0.4,1.6C41.4,9,41.2,9.5,41.2,10c-0.1,0.5-0.2,1.1-0.3,1.6c-0.1,0.5-0.1,1-0.2,1.5
		c-0.1,1.1-0.2,2.2-0.3,3.2c0.2-0.6,0.4-1.2,0.6-1.9s0.5-1.4,0.7-2c0.2-0.7,0.4-1.3,0.6-1.9c0.2-0.6,0.4-1.1,0.5-1.5
		c0.1-0.2,0.2-0.4,0.3-0.7c0.1-0.3,0.2-0.6,0.4-1s0.3-0.7,0.4-1.1c0.1-0.4,0.3-0.7,0.4-1.1c0.1-0.3,0.2-0.7,0.3-1s0.1-0.5,0.1-0.8
		C44.6,3.2,44.6,3,44.4,3z"/>
	<path class="st0" d="M56.9,23.1c0,0,0,0.1,0,0.3c0,0.1,0,0.3-0.1,0.5c0,0.2-0.1,0.4-0.2,0.6c-0.1,0.2-0.2,0.4-0.4,0.6
		c-0.2,0.2-0.4,0.3-0.7,0.4c-0.3,0.1-0.6,0.2-1,0.2c-0.3,0-0.6,0-0.9-0.1c-0.3-0.1-0.5-0.2-0.7-0.4c-0.2-0.2-0.3-0.4-0.4-0.7
		c-0.1-0.3-0.2-0.6-0.2-1c0-0.3,0-0.6,0.1-0.9s0.2-0.6,0.4-0.8s0.5-0.4,0.8-0.6c0.3-0.1,0.7-0.2,1.1-0.2c0.7,0,1.2,0.2,1.6,0.6
		S56.9,22.3,56.9,23.1C56.9,23,56.9,23,56.9,23.1z M54.6,18.7c0.1-0.9,0.2-1.9,0.4-2.8c0.2-1,0.4-2,0.6-2.9c0.2-1,0.5-1.9,0.7-2.9
		c0.3-1,0.5-1.9,0.8-2.7s0.5-1.7,0.7-2.5c0.2-0.8,0.4-1.5,0.6-2.1c0.1-0.4,0.3-0.8,0.5-1c0.2-0.3,0.5-0.5,0.7-0.6
		c0.3-0.1,0.6-0.2,0.9-0.3c0.3-0.1,0.6-0.1,0.9-0.1c0.1,0,0.3,0,0.4,0.1s0.2,0.1,0.3,0.2c0.1,0.1,0.2,0.2,0.2,0.4s0.1,0.4,0.1,0.6
		c0,0.2,0,0.4,0,0.6S62.3,3,62.3,3.3c-0.2,1-0.5,2.1-0.9,3.1c-0.4,1-0.8,2.2-1.3,3.4c-0.5,1.2-1.1,2.5-1.7,4
		c-0.6,1.4-1.4,3.1-2.1,4.9c0,0.1-0.1,0.2-0.1,0.3c-0.1,0.1-0.2,0.2-0.3,0.2c-0.1,0.1-0.2,0.1-0.3,0.1s-0.2,0-0.4,0
		c-0.2,0-0.3,0-0.4-0.1c-0.1-0.1-0.2-0.2-0.2-0.4C54.5,18.8,54.6,18.8,54.6,18.7z"/>
</g>
<g>
	<g>
		<path class="st0" d="M67.7,33.5C79.4,47.8,82,65.7,77.4,83.5c-3.9,15.1-14.7,29.7-30.7,33.1c0.8,0.4,1.5,0.9,2.3,1.3
			c-0.9-2.8,1.5-7.3,2.6-9.9c-1.2-0.3-2.4-0.7-3.6-1c-1.7,3.9-3.7,8.2-4.4,12.4c-0.2,1,0.3,2,1.3,2.3c3.8,1.2,7.1,3.5,11,4.8
			c2.3,0.8,3.3-2.8,1-3.6c-3.8-1.3-7.1-3.6-11-4.8c0.4,0.8,0.9,1.5,1.3,2.3c0.6-4.3,2.7-8.5,4.4-12.4c0.9-2.2-2.7-3.2-3.6-1
			c-1.4,3.4-3.8,8.2-2.6,11.9c0.3,1,1.3,1.5,2.3,1.3c17.2-3.6,29.1-19.4,33.3-35.7c5-19.2,2-38.2-10.6-53.6
			C68.9,29,66.2,31.7,67.7,33.5L67.7,33.5z"/>
	</g>
</g>
</svg>
